<?xml version="1.0" encoding="UTF-8" standalone="no"?>
<!-- Created with Inkscape (http://www.inkscape.org/) -->

<svg
   xmlns:dc="http://purl.org/dc/elements/1.1/"
   xmlns:cc="http://creativecommons.org/ns#"
   xmlns:rdf="http://www.w3.org/1999/02/22-rdf-syntax-ns#"
   xmlns:svg="http://www.w3.org/2000/svg"
   xmlns="http://www.w3.org/2000/svg"
   xmlns:sodipodi="http://sodipodi.sourceforge.net/DTD/sodipodi-0.dtd"
   xmlns:inkscape="http://www.inkscape.org/namespaces/inkscape"
   width="287.918"
   height="145.0934"
   id="svg2"
   version="1.1"
   inkscape:version="0.91 r13725"
   sodipodi:docname="logo_shaddow.svg">
  <defs
     id="defs4">
    <filter
       style="color-interpolation-filters:sRGB;"
       inkscape:label="Drop Shadow"
       id="filter4240">
      <feFlood
         flood-opacity="0.498039"
         flood-color="rgb(0,0,0)"
         result="flood"
         id="feFlood4242" />
      <feComposite
         in="flood"
         in2="SourceGraphic"
         operator="in"
         result="composite1"
         id="feComposite4244" />
      <feGaussianBlur
         in="composite1"
         stdDeviation="2.8"
         result="blur"
         id="feGaussianBlur4246" />
      <feOffset
         dx="2"
         dy="2"
         result="offset"
         id="feOffset4248" />
      <feComposite
         in="SourceGraphic"
         in2="offset"
         operator="over"
         result="composite2"
         id="feComposite4250" />
    </filter>
  </defs>
  <sodipodi:namedview
     id="base"
     pagecolor="#ffffff"
     bordercolor="#666666"
     borderopacity="1.0"
     inkscape:pageopacity="0.0"
     inkscape:pageshadow="2"
     inkscape:zoom="1.979899"
     inkscape:cx="104.53682"
     inkscape:cy="43.157457"
     inkscape:document-units="px"
     inkscape:current-layer="layer1"
     showgrid="false"
     showguides="false"
     inkscape:snap-grids="true"
     inkscape:snap-to-guides="true"
     inkscape:window-width="1440"
     inkscape:window-height="851"
     inkscape:window-x="0"
     inkscape:window-y="1"
     inkscape:window-maximized="1"
     fit-margin-top="0"
     fit-margin-left="0"
     fit-margin-right="0"
     fit-margin-bottom="0">
    <inkscape:grid
       type="xygrid"
       id="grid4051"
       empspacing="5"
       visible="true"
       enabled="true"
       snapvisiblegridlinesonly="true"
       originx="-281.81043px"
       originy="-685.52472px" />
  </sodipodi:namedview>
  <metadata
     id="metadata7">
    <rdf:RDF>
      <cc:Work
         rdf:about="">
        <dc:format>image/svg+xml</dc:format>
        <dc:type
           rdf:resource="http://purl.org/dc/dcmitype/StillImage" />
        <dc:title></dc:title>
      </cc:Work>
    </rdf:RDF>
  </metadata>
  <g
     inkscape:label="Layer 1"
     inkscape:groupmode="layer"
     id="layer1"
     transform="translate(-281.81043,-221.74406)">
    <path
       style="fill:#87deaa;stroke:#16502d;stroke-width:2.5;stroke-linecap:round;stroke-linejoin:round;stroke-miterlimit:4;stroke-opacity:1;stroke-dasharray:none;filter:url(#filter4240)"
       d="M 196.53516 1.25 L 1.25 143.84375 L 286.66797 143.84375 L 196.53516 1.25 z M 195.68555 9.3339844 L 198.98047 13.894531 L 191.61914 19.212891 L 205.35938 38.224609 L 199.28125 42.619141 L 185.54102 23.607422 L 178.17969 28.927734 L 174.88477 24.369141 L 195.68555 9.3339844 z M 173.83398 27.416016 L 177.96484 33.130859 L 177.26953 33.634766 C 176.79098 33.595032 176.19767 33.565189 175.49219 33.544922 C 174.79726 33.516989 174.04245 33.539081 173.22852 33.613281 C 172.40402 33.695095 171.57171 33.865107 170.72852 34.121094 C 169.88532 34.377074 169.07701 34.783044 168.30664 35.339844 C 167.45185 35.957664 166.74002 36.682492 166.16797 37.513672 C 165.58829 38.334292 165.19646 39.291199 164.99219 40.386719 C 164.80432 41.438259 164.8727 42.60276 165.19922 43.876953 C 165.53629 45.14352 166.21621 46.482384 167.23828 47.896484 C 168.30611 49.373891 169.40466 50.459784 170.5332 51.154297 C 171.6723 51.841184 172.76353 52.241302 173.80859 52.353516 C 174.87183 52.468656 175.8907 52.367608 176.86523 52.048828 C 177.83213 51.719495 178.70034 51.27555 179.4707 50.71875 C 180.20941 50.18483 180.85859 49.548867 181.41602 48.808594 C 181.984 48.060694 182.43595 47.275418 182.77344 46.453125 C 183.06934 45.773345 183.31238 45.098287 183.50391 44.429688 C 183.69542 43.761087 183.84344 43.197488 183.94531 42.738281 L 184.57812 42.28125 L 188.65039 47.916016 C 188.2501 48.606976 187.86453 49.263606 187.49414 49.884766 C 187.12375 50.505926 186.70526 51.113004 186.23633 51.708984 C 185.62613 52.487398 185.02508 53.178963 184.43359 53.783203 C 183.8421 54.387436 182.95537 55.116436 181.77344 55.970703 C 180.02165 57.236843 178.21523 58.150611 176.35352 58.708984 C 174.50236 59.259718 172.67289 59.407564 170.86719 59.154297 C 169.06147 58.901024 167.31021 58.222187 165.61328 57.119141 C 163.92689 56.008467 162.35936 54.452332 160.91016 52.447266 C 159.56011 50.579392 158.61521 48.681694 158.07617 46.757812 C 157.53714 44.833934 157.40923 42.943257 157.68945 41.085938 C 157.95798 39.301338 158.64109 37.580495 159.73828 35.919922 C 160.84603 34.251722 162.29584 32.769316 164.08984 31.472656 C 165.08182 30.755683 166.01525 30.168864 166.89062 29.712891 C 167.76892 29.238737 168.61096 28.845863 169.41602 28.537109 C 170.26799 28.226583 171.07131 27.992591 171.82422 27.833984 C 172.58006 27.657198 173.24876 27.517682 173.83398 27.416016 z M 210.94922 39.986328 L 213.73242 44.140625 L 266.60547 123.06641 L 262.45312 125.84961 L 252.73242 120.32422 L 251.32031 109.23438 L 241.60156 103.70898 L 240.18945 92.617188 L 230.4707 87.09375 L 229.05859 76.001953 L 219.33789 70.476562 L 217.92773 59.386719 L 208.20703 53.861328 L 206.79492 42.769531 L 210.94922 39.986328 z M 148.76562 43.246094 L 151.78711 47.425781 L 147.92383 50.216797 L 158.91992 65.429688 L 162.78125 62.636719 L 165.80273 66.816406 L 151.99805 76.792969 L 148.97852 72.613281 L 152.8418 69.822266 L 141.8457 54.609375 L 137.98438 57.402344 L 134.96289 53.222656 L 148.76562 43.246094 z M 195.375 58.919922 C 197.40324 58.891352 199.35787 59.320829 201.23828 60.210938 C 203.39025 61.210023 205.28998 62.849466 206.9375 65.128906 C 208.52399 67.32392 209.44519 69.655247 209.70117 72.121094 C 209.94953 74.57638 209.64413 76.820842 208.78516 78.855469 C 208.1383 80.383355 207.22826 81.780935 206.05469 83.046875 C 204.88111 84.312808 203.35499 85.622795 201.47656 86.980469 L 193.16602 92.988281 L 176.13086 69.417969 L 184.67969 63.240234 C 186.60033 61.852054 188.37447 60.818345 190.00391 60.138672 C 191.62573 59.448445 193.12505 59.054484 194.50195 58.958984 C 194.79472 58.936154 195.08525 58.924003 195.375 58.919922 z M 129.92578 59.224609 C 131.32557 59.160743 132.62456 59.434462 133.82227 60.046875 C 135.03053 60.651635 136.12739 61.63476 137.11133 62.996094 C 137.87406 64.051387 138.43595 65.219953 138.79883 66.5 C 139.15408 67.769487 139.23704 68.994061 139.04688 70.175781 C 138.77887 71.783281 138.23556 73.244694 137.41797 74.558594 C 136.61092 75.86486 135.34903 77.139546 133.62891 78.382812 L 129.8457 81.117188 L 135.39453 88.794922 L 129.31445 93.1875 L 112.2793 69.617188 L 122.2832 62.386719 C 123.78172 61.303625 125.1392 60.524855 126.35352 60.048828 C 127.57076 59.554615 128.76057 59.279569 129.92578 59.224609 z M 193.56836 65.5 C 193.16944 65.505165 192.76034 65.53993 192.3418 65.605469 C 191.49797 65.749449 190.71102 66.00568 189.98047 66.373047 C 189.25284 66.722234 188.23435 67.368653 186.92578 68.314453 L 185.39062 69.425781 L 196.05273 84.177734 L 197.58789 83.068359 C 199.03365 82.023406 200.04895 81.192912 200.63281 80.578125 C 201.20904 79.952785 201.69391 79.233435 202.08594 78.419922 C 202.73636 76.985869 202.93901 75.55404 202.69336 74.125 C 202.44009 72.6854 201.74799 71.18488 200.61914 69.623047 C 199.49792 68.07176 198.25569 66.953205 196.89258 66.267578 C 195.87244 65.739718 194.76511 65.484504 193.56836 65.5 z M 128.12891 66.164062 C 127.79845 66.145856 127.47991 66.175313 127.17383 66.251953 C 126.35759 66.456326 125.64022 66.764081 125.02344 67.177734 C 124.39904 67.580828 123.58652 68.144534 122.58398 68.869141 L 121.53906 69.625 L 126.64062 76.685547 L 128.38281 75.425781 C 129.417 74.678301 130.21966 74.001698 130.79297 73.394531 C 131.37683 72.779745 131.75831 72.118036 131.9375 71.410156 C 132.08389 70.790243 132.07499 70.187929 131.9082 69.601562 C 131.74437 68.997017 131.41784 68.357034 130.92969 67.681641 C 130.44916 67.016801 129.85828 66.576875 129.15625 66.361328 C 128.80142 66.248275 128.45937 66.18227 128.12891 66.164062 z M 107.16602 73.3125 L 110.46094 77.873047 L 99.460938 85.824219 L 102.40039 89.892578 L 112.61133 82.511719 L 115.90625 87.070312 L 105.69531 94.451172 L 109.90625 100.27539 L 120.9082 92.324219 L 124.20312 96.882812 L 107.1543 109.20508 L 90.119141 85.634766 L 107.16602 73.3125 z M 158.01172 79.904297 A 9.1071431 9.1071431 0 0 1 167.11719 89.011719 A 9.1071431 9.1071431 0 0 1 158.01172 98.117188 A 9.1071431 9.1071431 0 0 1 148.9043 89.011719 A 9.1071431 9.1071431 0 0 1 158.01172 79.904297 z M 218.79297 83.833984 L 217.46289 101.40039 L 236.28711 107.07227 L 228.83203 112.46094 L 214.96875 108.11914 L 214.79102 110.87305 L 220.36328 118.58203 L 214.28516 122.97656 L 197.24805 99.40625 L 203.32812 95.011719 L 211.03906 105.68164 L 211.74805 88.925781 L 218.79297 83.833984 z M 177.6543 84.904297 A 6.25 6.25 0 0 1 183.9043 91.154297 A 6.25 6.25 0 0 1 177.6543 97.404297 A 6.25 6.25 0 0 1 171.4043 91.154297 A 6.25 6.25 0 0 1 177.6543 84.904297 z M 82.453125 94.585938 C 84.481368 94.557371 86.43599 94.988804 88.316406 95.878906 C 90.468366 96.877986 92.368105 98.517425 94.015625 100.79688 C 95.602118 102.99187 96.52331 105.32127 96.779297 107.78711 C 97.027657 110.2424 96.722248 112.4888 95.863281 114.52344 C 95.216415 116.05131 94.306393 117.44695 93.132812 118.71289 C 91.95924 119.97882 90.433114 121.29076 88.554688 122.64844 L 80.244141 128.6543 L 63.208984 105.08594 L 71.755859 98.90625 C 73.676499 97.518063 75.452591 96.484352 77.082031 95.804688 C 78.703851 95.114459 80.203178 94.722453 81.580078 94.626953 C 81.872844 94.604124 82.163376 94.590018 82.453125 94.585938 z M 133.88086 97.583984 L 147.2832 97.583984 L 153.98438 109.18945 L 147.2832 120.79492 L 133.88086 120.79492 L 127.18164 109.18945 L 133.88086 97.583984 z M 80.644531 101.16602 C 80.245616 101.17118 79.836507 101.2079 79.417969 101.27344 C 78.574149 101.41742 77.787201 101.67366 77.056641 102.04102 C 76.329007 102.39021 75.31052 103.03662 74.001953 103.98242 L 72.466797 105.0918 L 83.130859 119.8457 L 84.666016 118.73633 C 86.111776 117.69137 87.127077 116.86088 87.710938 116.24609 C 88.287171 115.62075 88.770083 114.9014 89.162109 114.08789 C 89.812529 112.65384 90.015178 111.22202 89.769531 109.79297 C 89.516265 108.35338 88.826119 106.85286 87.697266 105.29102 C 86.576046 103.73974 85.333816 102.62117 83.970703 101.93555 C 82.950563 101.40769 81.841278 101.15052 80.644531 101.16602 z M 195.96875 102.4375 L 195.96875 116.5957 L 183.70703 109.51758 L 195.96875 102.4375 z M 174.98438 103.32031 L 175.18555 114.7168 L 163.78906 114.91797 L 163.58789 103.52344 L 174.98438 103.32031 z M 191.57031 122.37695 L 199.32227 126.21289 L 201.0918 134.53516 L 195.54492 141.08008 L 186.86133 140.91602 L 181.57812 134.16797 L 183.67383 125.91797 L 191.57031 122.37695 z M 172.7793 122.60938 L 178.0957 127.86523 L 178.13672 135.33984 L 172.88086 140.65625 L 165.40625 140.69727 L 160.0918 135.44141 L 160.04883 127.9668 L 165.30469 122.65234 L 172.7793 122.60938 z M 48.761719 123.83203 L 58.761719 128.47461 L 52.332031 139.18945 L 42.332031 134.18945 L 32.332031 139.9043 L 40.189453 128.11719 L 48.761719 123.83203 z M 255.12891 124.50977 L 263.80859 130.61914 L 263.75781 140.29688 L 246.05273 140.17188 L 246.14062 130.41406 L 255.12891 124.50977 z M 122.49609 124.74414 L 117.86328 137.49219 L 103.08008 132.92773 L 92.275391 138.98047 L 98.679688 127.74219 L 113.5957 131.51953 L 122.49609 124.74414 z M 125.9375 124.92773 L 134.83594 131.70312 L 149.75195 127.92578 L 156.15625 139.16602 L 145.35352 133.11133 L 130.56836 137.67773 L 125.9375 124.92773 z M 208.44922 125.10938 L 217.32031 125.10938 L 221.75586 132.79297 L 217.32031 140.47461 L 208.44922 140.47461 L 204.01367 132.79297 L 208.44922 125.10938 z M 233.50977 125.76758 L 241.51172 131.39844 L 238.17188 140.32227 L 228.10547 140.20508 L 225.22461 131.21094 L 233.50977 125.76758 z M 90.589844 126.48438 L 84.078125 138.63477 L 67.929688 138.6543 L 61.796875 126.91211 L 70.796875 133.49023 L 81.027344 133.57617 L 90.589844 126.48438 z "
       transform="translate(281.81043,221.74406)"
       id="path3817" />
  </g>
</svg>
