<?xml version="1.0" encoding="UTF-8" standalone="no"?>
<svg
   xmlns:dc="http://purl.org/dc/elements/1.1/"
   xmlns:cc="http://creativecommons.org/ns#"
   xmlns:rdf="http://www.w3.org/1999/02/22-rdf-syntax-ns#"
   xmlns:svg="http://www.w3.org/2000/svg"
   xmlns="http://www.w3.org/2000/svg"
   xmlns:sodipodi="http://sodipodi.sourceforge.net/DTD/sodipodi-0.dtd"
   xmlns:inkscape="http://www.inkscape.org/namespaces/inkscape"
   width="369.13199mm"
   height="97.203369mm"
   viewBox="0 0 369.13199 97.203369"
   version="1.1"
   id="svg8"
   inkscape:version="1.0.1 (c497b03c, 2020-09-10)"
   sodipodi:docname="depict-logo-draft.svg">
  <defs
     id="defs2" />
  <sodipodi:namedview
     id="base"
     pagecolor="#ffffff"
     bordercolor="#666666"
     borderopacity="1.0"
     inkscape:pageopacity="0.0"
     inkscape:pageshadow="2"
     inkscape:zoom="2.8"
     inkscape:cx="452.27846"
     inkscape:cy="248.75767"
     inkscape:document-units="mm"
     inkscape:current-layer="g944"
     inkscape:document-rotation="0"
     showgrid="false"
     inkscape:window-width="2513"
     inkscape:window-height="1281"
     inkscape:window-x="47"
     inkscape:window-y="106"
     inkscape:window-maximized="0"
     fit-margin-top="0"
     fit-margin-left="0"
     fit-margin-right="0"
     fit-margin-bottom="0" />
  <metadata
     id="metadata5">
    <rdf:RDF>
      <cc:Work
         rdf:about="">
        <dc:format>image/svg+xml</dc:format>
        <dc:type
           rdf:resource="http://purl.org/dc/dcmitype/StillImage" />
        <dc:title></dc:title>
      </cc:Work>
    </rdf:RDF>
  </metadata>
  <g
     inkscape:label="Layer 1"
     inkscape:groupmode="layer"
     id="layer1"
     transform="translate(-10.645376,-7.8380082)">
    <g
       id="g944"
       style="opacity:1">
      <path
         id="path946"
         style="color:#000000;font-style:normal;font-variant:normal;font-weight:normal;font-stretch:normal;font-size:medium;line-height:normal;font-family:sans-serif;font-variant-ligatures:normal;font-variant-position:normal;font-variant-caps:normal;font-variant-numeric:normal;font-variant-alternates:normal;font-variant-east-asian:normal;font-feature-settings:normal;font-variation-settings:normal;text-indent:0;text-align:start;text-decoration:none;text-decoration-line:none;text-decoration-style:solid;text-decoration-color:#000000;letter-spacing:normal;word-spacing:normal;text-transform:none;writing-mode:lr-tb;direction:ltr;text-orientation:mixed;dominant-baseline:auto;baseline-shift:baseline;text-anchor:start;white-space:normal;shape-padding:0;shape-margin:0;inline-size:0;clip-rule:nonzero;display:inline;overflow:visible;visibility:visible;isolation:auto;mix-blend-mode:normal;color-interpolation:sRGB;color-interpolation-filters:linearRGB;solid-color:#000000;solid-opacity:1;vector-effect:none;fill:#1a1a1a;fill-opacity:1;fill-rule:nonzero;stroke:none;stroke-width:39.8563;stroke-linecap:round;stroke-linejoin:round;stroke-miterlimit:4;stroke-dasharray:none;stroke-dashoffset:0;stroke-opacity:1;color-rendering:auto;image-rendering:auto;shape-rendering:auto;text-rendering:auto;enable-background:accumulate;stop-color:#000000;stop-opacity:1"
         d="M 19.919922 0 A 19.930118 19.930118 0 0 0 8.109375 35.978516 L 452.97266 363.50586 A 19.930118 19.930118 0 0 0 484.71289 347.45703 L 484.71289 19.929688 A 19.930118 19.930118 0 0 0 464.79102 0 L 19.919922 0 z "
         transform="matrix(0.26458333,0,0,0.26458333,10.645376,7.8380082)" />
    </g>
    <text
       xml:space="preserve"
       style="font-style:normal;font-weight:normal;font-size:53.5416px;line-height:1.25;font-family:sans-serif;fill:#000000;fill-opacity:1;stroke:none;stroke-width:1.33854"
       x="153.40591"
       y="46.817757"
       id="text842"><tspan
         sodipodi:role="line"
         id="tspan840"
         x="153.40591"
         y="46.817757"
         style="font-style:normal;font-variant:normal;font-weight:normal;font-stretch:normal;font-family:'Arial Black';-inkscape-font-specification:'Arial Black, ';stroke-width:1.33854">CDK</tspan></text>
    <text
       xml:space="preserve"
       style="font-style:normal;font-weight:normal;font-size:55.5012px;line-height:1.25;font-family:sans-serif;fill:#000000;fill-opacity:1;stroke:none;stroke-width:1.38753"
       x="153.11131"
       y="104.33677"
       id="text842-1"><tspan
         sodipodi:role="line"
         id="tspan840-5"
         x="153.11131"
         y="104.33677"
         style="font-style:normal;font-variant:normal;font-weight:normal;font-stretch:normal;font-family:'Arial Black';-inkscape-font-specification:'Arial Black, ';stroke-width:1.38753">DEPICT</tspan></text>
    <path
       sodipodi:type="star"
       style="fill:#ffffff;stroke:#ffffff;stroke-width:3.84555;stroke-linecap:round;stroke-linejoin:round"
       id="path878"
       sodipodi:sides="6"
       sodipodi:cx="120.39609"
       sodipodi:cy="27.337294"
       sodipodi:r1="11.381448"
       sodipodi:r2="9.8566217"
       sodipodi:arg1="0.52359878"
       sodipodi:arg2="1.0471976"
       inkscape:flatsided="true"
       inkscape:rounded="-1.04083e-17"
       inkscape:randomized="0"
       d="m 130.25271,33.028018 -9.85662,5.690723 -9.85663,-5.690724 0,-11.381447 9.85663,-5.690724 9.85662,5.690724 z"
       inkscape:transform-center-x="-1.7767099e-06" />
    <g
       id="g899"
       inkscape:transform-center-x="0.7158737"
       inkscape:transform-center-y="0.98200037"
       transform="matrix(-0.70266886,-0.31320058,0.31320058,-0.70266886,171.52737,106.7325)"
       style="opacity:1;stroke:none">
      <path
         id="path901"
         style="color:#000000;font-style:normal;font-variant:normal;font-weight:normal;font-stretch:normal;font-size:medium;line-height:normal;font-family:sans-serif;font-variant-ligatures:normal;font-variant-position:normal;font-variant-caps:normal;font-variant-numeric:normal;font-variant-alternates:normal;font-variant-east-asian:normal;font-feature-settings:normal;font-variation-settings:normal;text-indent:0;text-align:start;text-decoration:none;text-decoration-line:none;text-decoration-style:solid;text-decoration-color:#000000;letter-spacing:normal;word-spacing:normal;text-transform:none;writing-mode:lr-tb;direction:ltr;text-orientation:mixed;dominant-baseline:auto;baseline-shift:baseline;text-anchor:start;white-space:normal;shape-padding:0;shape-margin:0;inline-size:0;clip-rule:nonzero;display:inline;overflow:visible;visibility:visible;isolation:auto;mix-blend-mode:normal;color-interpolation:sRGB;color-interpolation-filters:linearRGB;solid-color:#000000;solid-opacity:1;vector-effect:none;fill:#ffffff;fill-opacity:1;fill-rule:nonzero;stroke:none;stroke-width:12.7036;stroke-linecap:round;stroke-linejoin:round;stroke-miterlimit:4;stroke-dasharray:none;stroke-dashoffset:0;stroke-opacity:1;color-rendering:auto;image-rendering:auto;shape-rendering:auto;text-rendering:auto;enable-background:accumulate;stop-color:#000000;stop-opacity:1"
         d="M 391.58789 157.5625 A 6.3524526 6.3524526 0 0 0 385.54688 161.95117 L 371.87305 203.98047 A 6.3524526 6.3524526 0 0 0 374.17383 211.08008 L 409.92188 237.07422 A 6.3524526 6.3524526 0 0 0 411.17969 237.7832 A 6.3524526 6.3524526 0 0 0 417.38867 237.07617 L 453.16016 211.11328 A 6.3524526 6.3524526 0 0 0 455.4707 204.01758 L 441.83008 161.97461 A 6.3524526 6.3524526 0 0 0 435.79297 157.58008 L 391.58789 157.5625 z "
         transform="matrix(-0.3141306,0.14001743,-0.14001743,-0.3141306,243.34454,32.275288)" />
    </g>
    <g
       id="g892"
       inkscape:transform-center-x="-1.7767099e-06"
       style="opacity:1;stroke:none">
      <path
         style="color:#000000;font-style:normal;font-variant:normal;font-weight:normal;font-stretch:normal;font-size:medium;line-height:normal;font-family:sans-serif;font-variant-ligatures:normal;font-variant-position:normal;font-variant-caps:normal;font-variant-numeric:normal;font-variant-alternates:normal;font-variant-east-asian:normal;font-feature-settings:normal;font-variation-settings:normal;text-indent:0;text-align:start;text-decoration:none;text-decoration-line:none;text-decoration-style:solid;text-decoration-color:#000000;letter-spacing:normal;word-spacing:normal;text-transform:none;writing-mode:lr-tb;direction:ltr;text-orientation:mixed;dominant-baseline:auto;baseline-shift:baseline;text-anchor:start;white-space:normal;shape-padding:0;shape-margin:0;inline-size:0;clip-rule:nonzero;display:inline;overflow:visible;visibility:visible;isolation:auto;mix-blend-mode:normal;color-interpolation:sRGB;color-interpolation-filters:linearRGB;solid-color:#000000;solid-opacity:1;vector-effect:none;fill:#ffffff;fill-opacity:1;fill-rule:nonzero;stroke:none;stroke-width:3.84555;stroke-linecap:round;stroke-linejoin:round;stroke-miterlimit:4;stroke-dasharray:none;stroke-dashoffset:0;stroke-opacity:1;color-rendering:auto;image-rendering:auto;shape-rendering:auto;text-rendering:auto;enable-background:accumulate;stop-color:#000000;stop-opacity:1"
         d="m 130.25271,33.028018 -9.85662,5.690723 -9.85663,-5.690724 V 21.64657 l 9.85663,-5.690724 9.85662,5.690724 z"
         id="path894" />
      <path
         style="color:#000000;font-style:normal;font-variant:normal;font-weight:normal;font-stretch:normal;font-size:medium;line-height:normal;font-family:sans-serif;font-variant-ligatures:normal;font-variant-position:normal;font-variant-caps:normal;font-variant-numeric:normal;font-variant-alternates:normal;font-variant-east-asian:normal;font-feature-settings:normal;font-variation-settings:normal;text-indent:0;text-align:start;text-decoration:none;text-decoration-line:none;text-decoration-style:solid;text-decoration-color:#000000;letter-spacing:normal;word-spacing:normal;text-transform:none;writing-mode:lr-tb;direction:ltr;text-orientation:mixed;dominant-baseline:auto;baseline-shift:baseline;text-anchor:start;white-space:normal;shape-padding:0;shape-margin:0;inline-size:0;clip-rule:nonzero;display:inline;overflow:visible;visibility:visible;isolation:auto;mix-blend-mode:normal;color-interpolation:sRGB;color-interpolation-filters:linearRGB;solid-color:#000000;solid-opacity:1;vector-effect:none;fill:#ffffff;fill-opacity:1;fill-rule:nonzero;stroke:none;stroke-width:3.84555;stroke-linecap:round;stroke-linejoin:round;stroke-miterlimit:4;stroke-dasharray:none;stroke-dashoffset:0;stroke-opacity:1;color-rendering:auto;image-rendering:auto;shape-rendering:auto;text-rendering:auto;enable-background:accumulate;stop-color:#000000;stop-opacity:1"
         d="m 120.35352,14.033203 a 1.9229673,1.9229673 0 0 0 -0.91797,0.257813 l -9.85743,5.689453 a 1.9229673,1.9229673 0 0 0 -0.96093,1.666015 v 11.38086 a 1.9229673,1.9229673 0 0 0 0.96093,1.666015 l 9.85743,5.691407 a 1.9229673,1.9229673 0 0 0 1.92187,0 l 9.85742,-5.691407 a 1.9229673,1.9229673 0 0 0 0.96094,-1.666015 v -11.38086 a 1.9229673,1.9229673 0 0 0 -0.96094,-1.666015 l -9.85742,-5.689453 a 1.9229673,1.9229673 0 0 0 -1.0039,-0.257813 z m 0.043,4.142578 7.9336,4.580078 v 9.16211 l -7.9336,4.580078 -7.93359,-4.580078 v -9.16211 z"
         id="path896" />
    </g>
    <path
       id="path864"
       style="color:#000000;font-style:normal;font-variant:normal;font-weight:normal;font-stretch:normal;font-size:medium;line-height:normal;font-family:sans-serif;font-variant-ligatures:normal;font-variant-position:normal;font-variant-caps:normal;font-variant-numeric:normal;font-variant-alternates:normal;font-variant-east-asian:normal;font-feature-settings:normal;font-variation-settings:normal;text-indent:0;text-align:start;text-decoration:none;text-decoration-line:none;text-decoration-style:solid;text-decoration-color:#000000;letter-spacing:normal;word-spacing:normal;text-transform:none;writing-mode:lr-tb;direction:ltr;text-orientation:mixed;dominant-baseline:auto;baseline-shift:baseline;text-anchor:start;white-space:normal;shape-padding:0;shape-margin:0;inline-size:0;clip-rule:nonzero;display:inline;overflow:visible;visibility:visible;opacity:1;isolation:auto;mix-blend-mode:normal;color-interpolation:sRGB;color-interpolation-filters:linearRGB;solid-color:#000000;solid-opacity:1;vector-effect:none;fill:#ffffff;fill-opacity:1;fill-rule:nonzero;stroke:none;stroke-width:1.56723;stroke-linecap:round;stroke-linejoin:miter;stroke-miterlimit:4;stroke-dasharray:none;stroke-dashoffset:0;stroke-opacity:1;color-rendering:auto;image-rendering:auto;shape-rendering:auto;text-rendering:auto;enable-background:accumulate;stop-color:#000000;stop-opacity:1"
       d="m 70.834935,20.54294 a 0.78361205,0.78361205 0 0 0 -0.0448,0.003 0.78361205,0.78361205 0 0 0 -5.3e-4,0 0.78361205,0.78361205 0 0 0 -0.0273,0.003 0.78361205,0.78361205 0 0 0 -0.0275,0.004 0.78361205,0.78361205 0 0 0 -0.0268,0.005 0.78361205,0.78361205 0 0 0 -0.001,0 0.78361205,0.78361205 0 0 0 -0.0265,0.006 0.78361205,0.78361205 0 0 0 -0.027,0.007 0.78361205,0.78361205 0 0 0 -0.0265,0.008 0.78361205,0.78361205 0 0 0 -0.0141,0.005 0.78361205,0.78361205 0 0 0 -0.0219,0.007 0.78361205,0.78361205 0 0 0 -0.0232,0.009 0.78361205,0.78361205 0 0 0 -0.0121,0.005 0.78361205,0.78361205 0 0 0 -0.0113,0.005 0.78361205,0.78361205 0 0 0 -0.008,0.003 0.78361205,0.78361205 0 0 0 -0.0224,0.0102 0.78361205,0.78361205 0 0 0 -0.0246,0.0124 0.78361205,0.78361205 0 0 0 -0.02,0.0111 0.78361205,0.78361205 0 0 0 -0.0108,0.006 0.78361205,0.78361205 0 0 0 -0.009,0.005 0.78361205,0.78361205 0 0 0 -0.009,0.005 0.78361205,0.78361205 0 0 0 -0.0459,0.0308 0.78361205,0.78361205 0 0 0 -0.0222,0.0167 0.78361205,0.78361205 0 0 0 -0.02,0.0159 0.78361205,0.78361205 0 0 0 -0.004,0.003 0.78361205,0.78361205 0 0 0 -0.019,0.0162 0.78361205,0.78361205 0 0 0 -0.0202,0.0192 0.78361205,0.78361205 0 0 0 -0.0197,0.0194 0.78361205,0.78361205 0 0 0 -0.019,0.0205 0.78361205,0.78361205 0 0 0 -0.018,0.0208 0.78361205,0.78361205 0 0 0 -0.034,0.0437 0.78361205,0.78361205 0 0 0 -0.0307,0.0456 0.78361205,0.78361205 0 0 0 -0.0229,0.0389 0.78361205,0.78361205 0 0 0 -9.8e-4,0.003 l -7.17393,12.42348 a 0.78361205,0.78361205 0 0 0 -0.007,0.0119 0.78361205,0.78361205 0 0 0 -0.0119,0.0213 0.78361205,0.78361205 0 0 0 -0.004,0.008 0.78361205,0.78361205 0 0 0 -0.009,0.0178 0.78361205,0.78361205 0 0 0 -0.004,0.009 0.78361205,0.78361205 0 0 0 -0.006,0.0122 0.78361205,0.78361205 0 0 0 -0.006,0.014 0.78361205,0.78361205 0 0 0 -0.006,0.014 0.78361205,0.78361205 0 0 0 -0.003,0.007 0.78361205,0.78361205 0 0 0 -0.008,0.0211 0.78361205,0.78361205 0 0 0 -0.009,0.0262 0.78361205,0.78361205 0 0 0 -0.008,0.0264 0.78361205,0.78361205 0 0 0 -0.007,0.0267 0.78361205,0.78361205 0 0 0 -0.006,0.027 0.78361205,0.78361205 0 0 0 -0.005,0.0273 0.78361205,0.78361205 0 0 0 -0.004,0.0224 0.78361205,0.78361205 0 0 0 -0.003,0.0203 0.78361205,0.78361205 0 0 0 -7.9e-4,0.007 0.78361205,0.78361205 0 0 0 -8.3e-4,0.01 0.78361205,0.78361205 0 0 0 -0.002,0.0227 0.78361205,0.78361205 0 0 0 -0.001,0.0232 0.78361205,0.78361205 0 0 0 -2.7e-4,0.0173 0.78361205,0.78361205 0 0 0 -2.7e-4,0.0111 0.78361205,0.78361205 0 0 0 2.7e-4,0.0111 0.78361205,0.78361205 0 0 0 2.7e-4,0.0173 0.78361205,0.78361205 0 0 0 5.2e-4,0.0124 0.78361205,0.78361205 0 0 0 8.4e-4,0.014 0.78361205,0.78361205 0 0 0 0.002,0.0173 0.78361205,0.78361205 0 0 0 0.001,0.0108 0.78361205,0.78361205 0 0 0 10e-4,0.0113 0.78361205,0.78361205 0 0 0 0.002,0.0178 0.78361205,0.78361205 0 0 0 10e-4,0.008 0.78361205,0.78361205 0 0 0 0.004,0.0213 0.78361205,0.78361205 0 0 0 0.0135,0.0599 0.78361205,0.78361205 0 0 0 0.005,0.0192 0.78361205,0.78361205 0 0 0 8.3e-4,0.002 0.78361205,0.78361205 0 0 0 0.006,0.0178 0.78361205,0.78361205 0 0 0 0.004,0.0132 0.78361205,0.78361205 0 0 0 0,5.3e-4 0.78361205,0.78361205 0 0 0 0.009,0.0256 0.78361205,0.78361205 0 0 0 0.009,0.0235 0.78361205,0.78361205 0 0 0 0.004,0.009 0.78361205,0.78361205 0 0 0 0.008,0.0173 0.78361205,0.78361205 0 0 0 10e-4,0.003 0.78361205,0.78361205 0 0 0 0.0111,0.0224 0.78361205,0.78361205 0 0 0 2.7e-4,5.2e-4 0.78361205,0.78361205 0 0 0 0.013,0.024 0.78361205,0.78361205 0 0 0 0.0132,0.0229 0.78361205,0.78361205 0 0 0 0.003,0.005 0.78361205,0.78361205 0 0 0 0.0122,0.0189 0.78361205,0.78361205 0 0 0 5.2e-4,5.2e-4 0.78361205,0.78361205 0 0 0 0.0122,0.0181 0.78361205,0.78361205 0 0 0 0.009,0.0127 0.78361205,0.78361205 0 0 0 0.0105,0.0143 0.78361205,0.78361205 0 0 0 0.0351,0.0429 0.78361205,0.78361205 0 0 0 0.19707,0.16198 0.78361205,0.78361205 0 0 0 0.62496,0.0694 l 13.65845,-3.65961 13.6579,3.65961 a 0.78361205,0.78361205 0 0 0 0.91059,-0.355 0.78361205,0.78361205 0 0 0 9.1e-4,-10e-4 l 7.191061,-12.45494 a 0.78361205,0.78361205 0 0 0 -0.28671,-1.07013 0.78361205,0.78361205 0 0 0 -0.412227,-0.10529 0.78361205,0.78361205 0 0 0 -0.16413,0.0219 0.78361205,0.78361205 0 0 0 -0.005,0.001 0.78361205,0.78361205 0 0 0 -0.0338,0.009 l -13.66848,3.662 -13.67114,-3.66257 a 0.78361205,0.78361205 0 0 0 -0.0178,-0.005 0.78361205,0.78361205 0 0 0 -0.0268,-0.007 0.78361205,0.78361205 0 0 0 -0.027,-0.006 0.78361205,0.78361205 0 0 0 -0.0273,-0.005 0.78361205,0.78361205 0 0 0 -0.0275,-0.004 0.78361205,0.78361205 0 0 0 -0.0551,-0.005 0.78361205,0.78361205 0 0 0 -0.0277,-10e-4 0.78361205,0.78361205 0 0 0 -0.0151,-2.8e-4 0.78361205,0.78361205 0 0 0 -0.006,0 0.78361205,0.78361205 0 0 0 -0.0103,0 z" />
  </g>
</svg>
