<?xml version="1.0" encoding="UTF-8" standalone="no"?>
<svg
   xmlns:dc="http://purl.org/dc/elements/1.1/"
   xmlns:cc="http://creativecommons.org/ns#"
   xmlns:rdf="http://www.w3.org/1999/02/22-rdf-syntax-ns#"
   xmlns:svg="http://www.w3.org/2000/svg"
   xmlns="http://www.w3.org/2000/svg"
   xmlns:sodipodi="http://sodipodi.sourceforge.net/DTD/sodipodi-0.dtd"
   xmlns:inkscape="http://www.inkscape.org/namespaces/inkscape"
   width="369.13199mm"
   height="97.203369mm"
   viewBox="0 0 369.13199 97.203369"
   version="1.1"
   id="svg8"
   inkscape:version="1.0.1 (c497b03c, 2020-09-10)"
   sodipodi:docname="depict-logo-cutout-white.svg">
  <defs
     id="defs2" />
  <sodipodi:namedview
     id="base"
     pagecolor="#ffffff"
     bordercolor="#666666"
     borderopacity="1.0"
     inkscape:pageopacity="0.0"
     inkscape:pageshadow="2"
     inkscape:zoom="0.9899495"
     inkscape:cx="694.35348"
     inkscape:cy="30.670086"
     inkscape:document-units="mm"
     inkscape:current-layer="layer1"
     inkscape:document-rotation="0"
     showgrid="false"
     inkscape:window-width="2513"
     inkscape:window-height="1281"
     inkscape:window-x="47"
     inkscape:window-y="106"
     inkscape:window-maximized="0"
     fit-margin-top="0"
     fit-margin-left="0"
     fit-margin-right="0"
     fit-margin-bottom="0" />
  <metadata
     id="metadata5">
    <rdf:RDF>
      <cc:Work
         rdf:about="">
        <dc:format>image/svg+xml</dc:format>
        <dc:type
           rdf:resource="http://purl.org/dc/dcmitype/StillImage" />
        <dc:title></dc:title>
      </cc:Work>
    </rdf:RDF>
  </metadata>
  <g
     inkscape:label="Layer 1"
     inkscape:groupmode="layer"
     id="layer1"
     transform="translate(-10.645376,-7.8380082)">
    <path
       id="path995"
       style="font-style:normal;font-variant:normal;font-weight:normal;font-stretch:normal;font-size:55.50119999999999720px;line-height:1.25;font-family:'Arial Black';-inkscape-font-specification:'Arial Black, ';fill:#ffffff;fill-opacity:1;stroke:none;stroke-width:1.38753"
       d="m 342.46039,64.607882 h 37.31697 v 9.810271 h -12.5203 V 104.33677 H 354.98068 V 74.418153 h -12.52029 z m -13.9024,23.49587 10.75878,3.252023 q -1.08401,4.525733 -3.41463,7.560955 -2.33062,3.03522 -5.79944,4.57993 -3.44173,1.54471 -8.78046,1.54471 -6.47695,0 -10.59618,-1.86991 -4.09213,-1.89701 -7.07315,-6.639547 -2.98102,-4.742535 -2.98102,-12.140888 0,-9.864472 5.23033,-15.14901 5.25744,-5.311638 14.85091,-5.311638 7.50676,0 11.78859,3.035222 4.30893,3.035222 6.39564,9.322467 l -10.84008,2.411918 q -0.5691,-1.815714 -1.1924,-2.65582 -1.02981,-1.40921 -2.52032,-2.168015 -1.49051,-0.758806 -3.33333,-0.758806 -4.17343,0 -6.39564,3.360425 -1.68021,2.493218 -1.68021,7.831956 0,6.612448 2.00541,9.078566 2.00541,2.439018 5.63684,2.439018 3.52303,0 5.31164,-1.978315 1.81571,-1.978314 2.62872,-5.745241 z m -47.53375,-23.49587 h 12.30349 v 39.728888 h -12.30349 z m -40.6503,0 h 20.40645 q 6.66665,0 9.97287,3.170723 3.33333,3.170722 3.33333,9.024365 0,6.016243 -3.63143,9.403768 -3.60433,3.387524 -11.02978,3.387524 h -6.72085 v 14.742508 h -12.33059 z m 12.33059,16.937622 h 3.00812 q 3.55013,0 4.98644,-1.219509 1.43631,-1.246609 1.43631,-3.170723 0,-1.869913 -1.24661,-3.170723 -1.24661,-1.300809 -4.68833,-1.300809 h -3.49593 z M 200.29275,64.607882 h 32.89964 v 8.482361 h -20.59615 v 6.314346 h 19.10564 v 8.102958 h -19.10564 v 7.831957 h 21.19236 v 8.997266 h -33.49585 z m -42.95381,0 h 18.23844 q 5.39293,0 8.69916,1.46341 3.33332,1.463411 5.50134,4.200531 2.16801,2.737119 3.14362,6.368546 0.97561,3.631426 0.97561,7.696455 0,6.368546 -1.46341,9.891572 -1.43631,3.495925 -4.01083,5.880744 -2.57452,2.35772 -5.52844,3.14362 -4.03793,1.08401 -7.31705,1.08401 h -18.23844 z m 12.27639,8.997265 v 21.707257 h 3.00812 q 3.84823,0 5.47424,-0.840106 1.62602,-0.867207 2.54742,-2.981022 0.92141,-2.140915 0.92141,-6.91055 0,-6.314346 -2.05962,-8.644962 -2.05961,-2.330617 -6.82925,-2.330617 z M 240.62016,8.4915923 H 252.4631 V 22.975013 L 264.8812,8.4915923 h 15.7383 L 266.65895,22.94887 281.24694,46.817757 h -14.58799 l -8.0783,-15.764446 -6.11755,6.405123 v 9.359323 h -11.84294 z m -41.51565,0 h 17.59448 q 5.20253,0 8.39201,1.4117414 3.21564,1.4117413 5.30711,4.0522203 2.09147,2.64048 3.03263,6.14369 0.94116,3.50321 0.94116,7.424714 0,6.143689 -1.41174,9.542326 -1.3856,3.372493 -3.86922,5.673109 -2.48362,2.274472 -5.33325,3.032629 -3.89536,1.045735 -7.0587,1.045735 h -17.59448 z m 11.84294,8.6795957 v 20.94083 h 2.90191 q 3.71236,0 5.28096,-0.810444 1.5686,-0.836588 2.45747,-2.87577 0.88888,-2.065325 0.88888,-6.666556 0,-6.091403 -1.9869,-8.339732 -1.98689,-2.248328 -6.58812,-2.248328 z m -28.10411,13.986697 10.37891,3.137203 q -1.04573,4.365941 -3.29406,7.293997 -2.24833,2.928056 -5.59468,4.418228 -3.32021,1.490171 -8.47045,1.490171 -6.24826,0 -10.22205,-1.803892 -3.94765,-1.830035 -6.82342,-6.405123 -2.87577,-4.575088 -2.87577,-11.712225 0,-9.516182 5.04567,-14.614137 5.07181,-5.1240986 14.32656,-5.1240986 7.24171,0 11.37236,2.9280566 4.15679,2.928056 6.16983,8.993315 l -10.45734,2.326759 q -0.54901,-1.751605 -1.15031,-2.562049 -0.99345,-1.359455 -2.43133,-2.091469 -1.43789,-0.732014 -3.21563,-0.732014 -4.02608,0 -6.16984,3.241777 -1.62088,2.405189 -1.62088,7.55543 0,6.37898 1.9346,8.758026 1.93461,2.352902 5.43782,2.352902 3.39864,0 5.1241,-1.908465 1.75161,-1.908465 2.53591,-5.542392 z M 15.915855,7.8380082 A 5.273177,5.273177 0 0 0 12.790981,17.357324 L 130.49439,104.0156 a 5.273177,5.273177 0 0 0 8.39794,-4.246254 V 13.111071 a 5.273177,5.273177 0 0 0 -5.271,-5.2730628 z M 120.38338,14.032462 a 1.9229672,1.9229672 0 0 1 0.9741,0.258382 l 9.85728,5.689575 a 1.9229672,1.9229672 0 0 1 0.96118,1.666048 v 11.380701 a 1.9229672,1.9229672 0 0 1 -0.96118,1.666048 l -9.85728,5.691643 a 1.9229672,1.9229672 0 0 1 -1.92185,0 l -9.85728,-5.691643 a 1.9229672,1.9229672 0 0 1 -0.96118,-1.666048 V 21.646467 a 1.9229672,1.9229672 0 0 1 0.96118,-1.666048 l 9.85728,-5.689575 a 1.9229672,1.9229672 0 0 1 0.91778,-0.257865 1.9229672,1.9229672 0 0 1 0.03,-5.17e-4 z m -49.553049,6.508647 a 0.78361203,0.78361203 0 0 1 0.01034,0 0.78361203,0.78361203 0 0 1 0.0057,0 0.78361203,0.78361203 0 0 1 0.0155,5.16e-4 0.78361203,0.78361203 0 0 1 0.02739,0.001 0.78361203,0.78361203 0 0 1 0.05529,0.0052 0.78361203,0.78361203 0 0 1 0.02739,0.0036 0.78361203,0.78361203 0 0 1 0.02739,0.0052 0.78361203,0.78361203 0 0 1 0.02687,0.0062 0.78361203,0.78361203 0 0 1 0.02687,0.0067 0.78361203,0.78361203 0 0 1 0.01757,0.0052 l 13.671515,3.662309 13.668417,-3.661792 a 0.78361203,0.78361203 0 0 1 0.03359,-0.0088 0.78361203,0.78361203 0 0 1 0.0052,-0.001 0.78361203,0.78361203 0 0 1 0.163814,-0.02222 0.78361203,0.78361203 0 0 1 0.41238,0.10542 0.78361203,0.78361203 0 0 1 0.286803,1.070219 l -7.191293,12.455053 a 0.78361203,0.78361203 0 0 1 -5.16e-4,0.001 0.78361203,0.78361203 0 0 1 -0.91054,0.355016 L 77.551886,30.870194 63.893287,34.529918 a 0.78361203,0.78361203 0 0 1 -0.624768,-0.06976 0.78361203,0.78361203 0 0 1 -0.197403,-0.161747 0.78361203,0.78361203 0 0 1 -0.03462,-0.04289 0.78361203,0.78361203 0 0 1 -0.01085,-0.01447 0.78361203,0.78361203 0 0 1 -0.0088,-0.0124 0.78361203,0.78361203 0 0 1 -0.0124,-0.0186 0.78361203,0.78361203 0 0 0 -5.19e-4,-5.17e-4 0.78361203,0.78361203 0 0 1 -0.01188,-0.0186 0.78361203,0.78361203 0 0 1 -0.0031,-0.0052 0.78361203,0.78361203 0 0 1 -0.01344,-0.02274 0.78361203,0.78361203 0 0 1 -0.01292,-0.02429 0.78361203,0.78361203 0 0 0 0,-5.17e-4 0.78361203,0.78361203 0 0 1 -0.01137,-0.02222 0.78361203,0.78361203 0 0 1 -0.001,-0.0031 0.78361203,0.78361203 0 0 1 -0.0078,-0.01705 0.78361203,0.78361203 0 0 1 -0.0041,-0.0093 0.78361203,0.78361203 0 0 1 -0.0088,-0.02325 0.78361203,0.78361203 0 0 1 -0.0093,-0.02584 0.78361203,0.78361203 0 0 0 0,-5.17e-4 0.78361203,0.78361203 0 0 1 -0.0041,-0.01292 0.78361203,0.78361203 0 0 1 -0.0057,-0.01809 0.78361203,0.78361203 0 0 1 -0.001,-0.0016 0.78361203,0.78361203 0 0 1 -0.0052,-0.01964 0.78361203,0.78361203 0 0 1 -0.01344,-0.05994 0.78361203,0.78361203 0 0 1 -0.0036,-0.02119 0.78361203,0.78361203 0 0 1 -0.001,-0.0078 0.78361203,0.78361203 0 0 1 -0.0021,-0.01809 0.78361203,0.78361203 0 0 1 -0.001,-0.01137 0.78361203,0.78361203 0 0 1 -0.001,-0.01034 0.78361203,0.78361203 0 0 1 -0.0021,-0.01757 0.78361203,0.78361203 0 0 1 -0.001,-0.01395 0.78361203,0.78361203 0 0 1 -5.16e-4,-0.0124 0.78361203,0.78361203 0 0 1 0,-0.01757 0.78361203,0.78361203 0 0 1 -5.19e-4,-0.01085 0.78361203,0.78361203 0 0 1 5.19e-4,-0.01085 0.78361203,0.78361203 0 0 1 0,-0.01757 0.78361203,0.78361203 0 0 1 0.001,-0.02325 0.78361203,0.78361203 0 0 1 0.0021,-0.02274 0.78361203,0.78361203 0 0 1 0.001,-0.0098 0.78361203,0.78361203 0 0 1 5.16e-4,-0.0072 0.78361203,0.78361203 0 0 1 0.0031,-0.02015 0.78361203,0.78361203 0 0 1 0.0041,-0.02222 0.78361203,0.78361203 0 0 1 0.0052,-0.02739 0.78361203,0.78361203 0 0 1 0.0057,-0.02687 0.78361203,0.78361203 0 0 1 0.0072,-0.02687 0.78361203,0.78361203 0 0 1 0.0078,-0.02635 0.78361203,0.78361203 0 0 1 0.0093,-0.02636 0.78361203,0.78361203 0 0 1 0.0078,-0.02119 0.78361203,0.78361203 0 0 1 0.0031,-0.0067 0.78361203,0.78361203 0 0 1 0.0062,-0.01395 0.78361203,0.78361203 0 0 1 0.0057,-0.01395 0.78361203,0.78361203 0 0 1 0.0062,-0.0124 0.78361203,0.78361203 0 0 1 0.0036,-0.0088 0.78361203,0.78361203 0 0 1 0.0093,-0.01809 0.78361203,0.78361203 0 0 1 0.0041,-0.0078 0.78361203,0.78361203 0 0 1 0.01188,-0.0217 0.78361203,0.78361203 0 0 1 0.0067,-0.01189 l 7.174238,-12.423014 a 0.78361203,0.78361203 0 0 1 0.001,-0.0031 0.78361203,0.78361203 0 0 1 0.02274,-0.03927 0.78361203,0.78361203 0 0 1 0.03049,-0.04547 0.78361203,0.78361203 0 0 1 0.03411,-0.04341 0.78361203,0.78361203 0 0 1 0.01809,-0.02119 0.78361203,0.78361203 0 0 1 0.01912,-0.02015 0.78361203,0.78361203 0 0 1 0.01964,-0.01964 0.78361203,0.78361203 0 0 1 0.02015,-0.01912 0.78361203,0.78361203 0 0 1 0.01912,-0.01602 0.78361203,0.78361203 0 0 1 0.0036,-0.0031 0.78361203,0.78361203 0 0 1 0.02015,-0.01602 0.78361203,0.78361203 0 0 1 0.02222,-0.01654 0.78361203,0.78361203 0 0 1 0.04599,-0.03101 0.78361203,0.78361203 0 0 1 0.0088,-0.0047 0.78361203,0.78361203 0 0 1 0.0093,-0.0052 0.78361203,0.78361203 0 0 1 0.01085,-0.0062 0.78361203,0.78361203 0 0 1 0.01964,-0.01085 0.78361203,0.78361203 0 0 1 0.02481,-0.0124 0.78361203,0.78361203 0 0 1 0.02222,-0.01033 0.78361203,0.78361203 0 0 1 0.0083,-0.0031 0.78361203,0.78361203 0 0 1 0.01137,-0.0047 0.78361203,0.78361203 0 0 1 0.01189,-0.0052 0.78361203,0.78361203 0 0 1 0.02325,-0.0093 0.78361203,0.78361203 0 0 1 0.0217,-0.0067 0.78361203,0.78361203 0 0 1 0.01447,-0.0052 0.78361203,0.78361203 0 0 1 0.02636,-0.0078 0.78361203,0.78361203 0 0 1 0.02687,-0.0072 0.78361203,0.78361203 0 0 1 0.02636,-0.0057 0.78361203,0.78361203 0 0 1 0.001,0 0.78361203,0.78361203 0 0 1 0.02687,-0.0052 0.78361203,0.78361203 0 0 1 0.02739,-0.0041 0.78361203,0.78361203 0 0 1 0.02739,-0.0031 0.78361203,0.78361203 0 0 0 5.16e-4,0 0.78361203,0.78361203 0 0 1 0.04496,-0.0026 z m 43.422669,28.98531 11.69593,0.0047 a 1.680753,1.680753 0 0 1 1.59732,1.162719 l 3.60908,11.123869 a 1.680753,1.680753 0 0 1 -0.61133,1.877404 l -9.46454,6.869348 a 1.680753,1.680753 0 0 1 -1.64279,0.187068 1.680753,1.680753 0 0 1 -0.3328,-0.187584 l -9.45834,-6.877616 a 1.680753,1.680753 0 0 1 -0.60874,-1.878439 l 3.61786,-11.120252 a 1.680753,1.680753 0 0 1 1.59835,-1.161169 z" />
  </g>
</svg>
