<?xml version="1.0" encoding="UTF-8" standalone="no"?>
<!DOCTYPE svg PUBLIC "-//W3C//DTD SVG 1.1//EN" "http://www.w3.org/Graphics/SVG/1.1/DTD/svg11.dtd">
<svg width="100%" height="100%" viewBox="0 0 64 64" version="1.1" xmlns="http://www.w3.org/2000/svg" xmlns:xlink="http://www.w3.org/1999/xlink" xml:space="preserve" xmlns:serif="http://www.serif.com/" style="fill-rule:evenodd;clip-rule:evenodd;stroke-linejoin:round;stroke-miterlimit:2;">
    <g transform="matrix(1,0,0,1,-64,-64)">
        <rect id="map" x="64" y="64" width="64" height="64" style="fill:none;"/>
        <g id="map1" serif:id="map">
            <g transform="matrix(1.68895,0,0,1.68895,-66.1396,-67.4063)">
                <path d="M95.464,105.973L96.964,105.973C97.792,105.973 98.464,105.301 98.464,104.473C98.464,103.646 97.792,102.973 96.964,102.973L95.464,102.973C94.636,102.973 93.964,103.646 93.964,104.473C93.964,105.301 94.636,105.973 95.464,105.973ZM84.664,105.973L86.164,105.973C86.992,105.973 87.664,105.301 87.664,104.473C87.664,103.646 86.992,102.973 86.164,102.973L84.664,102.973C83.836,102.973 83.164,103.646 83.164,104.473C83.164,105.301 83.836,105.973 84.664,105.973ZM100.864,105.973L102.364,105.973C103.192,105.973 103.864,105.301 103.864,104.473C103.864,103.646 103.192,102.973 102.364,102.973L100.864,102.973C100.036,102.973 99.364,103.646 99.364,104.473C99.364,105.301 100.036,105.973 100.864,105.973ZM106.264,105.973L107.759,105.973C108.587,105.973 109.259,105.301 109.259,104.473C109.259,103.646 108.587,102.973 107.759,102.973L106.264,102.973C105.436,102.973 104.764,103.646 104.764,104.473C104.764,105.301 105.436,105.973 106.264,105.973ZM90.064,105.973L91.564,105.973C92.392,105.973 93.064,105.301 93.064,104.473C93.064,103.646 92.392,102.973 91.564,102.973L90.064,102.973C89.236,102.973 88.564,103.646 88.564,104.473C88.564,105.301 89.236,105.973 90.064,105.973ZM107.918,87.527C110.783,87.527 113.109,89.644 113.109,92.253C113.109,94.862 110.646,101.24 107.78,101.24C104.915,101.24 102.726,94.862 102.726,92.253C102.726,89.644 105.052,87.527 107.918,87.527ZM84.082,87.527C86.948,87.527 89.274,89.644 89.274,92.253C89.274,94.862 86.81,101.24 83.945,101.24C81.08,101.24 78.891,94.862 78.891,92.253C78.891,89.644 81.217,87.527 84.082,87.527ZM107.918,89.048C109.833,89.048 111.388,90.534 111.388,92.363C111.388,94.193 109.833,95.679 107.918,95.679C106.002,95.679 104.447,94.193 104.447,92.363C104.447,90.534 106.002,89.048 107.918,89.048ZM84.082,89.048C85.998,89.048 87.553,90.534 87.553,92.363C87.553,94.193 85.998,95.679 84.082,95.679C82.167,95.679 80.612,94.193 80.612,92.363C80.612,90.534 82.167,89.048 84.082,89.048Z"/>
            </g>
        </g>
    </g>
</svg>
