<?xml version="1.0" encoding="UTF-8" standalone="no"?><!DOCTYPE svg PUBLIC "-//W3C//DTD SVG 1.1//EN" "http://www.w3.org/Graphics/SVG/1.1/DTD/svg11.dtd"><svg width="100%" height="100%" viewBox="0 0 1047 276" version="1.1" xmlns="http://www.w3.org/2000/svg" xmlns:xlink="http://www.w3.org/1999/xlink" xml:space="preserve" xmlns:serif="http://www.serif.com/" style="fill-rule:evenodd;clip-rule:evenodd;stroke-linejoin:round;stroke-miterlimit:2;"><g id="Layer-1" serif:id="Layer 1"><g id="text842"><g><path d="M322.12,66.104l29.421,8.892c-1.976,8.251 -5.089,15.143 -9.338,20.676c-4.249,5.534 -9.523,9.708 -15.822,12.524c-6.299,2.817 -14.315,4.225 -24.047,4.225c-11.808,-0 -21.454,-1.717 -28.939,-5.151c-7.485,-3.434 -13.945,-9.473 -19.379,-18.119c-5.435,-8.646 -8.152,-19.713 -8.152,-33.2c-0,-17.983 4.78,-31.804 14.34,-41.463c9.559,-9.659 23.084,-14.488 40.573,-14.488c13.685,-0 24.443,2.767 32.274,8.3c7.831,5.533 13.648,14.031 17.452,25.493l-29.643,6.595c-1.037,-3.31 -2.124,-5.731 -3.26,-7.262c-1.878,-2.569 -4.175,-4.545 -6.892,-5.929c-2.718,-1.383 -5.756,-2.075 -9.115,-2.075c-7.609,0 -13.439,3.063 -17.49,9.19c-3.063,4.545 -4.594,11.684 -4.594,21.417c-0,12.054 1.828,20.317 5.484,24.788c3.655,4.472 8.794,6.707 15.414,6.707c6.422,0 11.276,-1.803 14.562,-5.41c3.285,-3.606 5.669,-8.843 7.151,-15.71Z" style="fill:#fff;fill-rule:nonzero;"/><path d="M368.289,1.853l49.874,-0c9.832,-0 17.773,1.334 23.826,4.001c6.052,2.668 11.054,6.497 15.006,11.487c3.953,4.99 6.818,10.795 8.597,17.415c1.778,6.62 2.668,13.636 2.668,21.047c-0,11.61 -1.322,20.614 -3.965,27.012c-2.643,6.398 -6.312,11.758 -11.005,16.081c-4.694,4.323 -9.733,7.201 -15.118,8.633c-7.361,1.977 -14.031,2.965 -20.009,2.965l-49.874,-0l-0,-108.641Zm33.57,24.603l0,59.36l8.226,0c7.016,0 12.006,-0.778 14.97,-2.334c2.964,-1.557 5.286,-4.274 6.966,-8.152c1.68,-3.878 2.52,-10.165 2.52,-18.86c-0,-11.512 -1.878,-19.392 -5.632,-23.641c-3.755,-4.248 -9.98,-6.373 -18.675,-6.373l-8.375,0Z" style="fill:#fff;fill-rule:nonzero;"/><path d="M486.045,1.853l33.571,-0l-0,41.055l35.201,-41.055l44.612,-0l-39.573,40.981l41.352,67.66l-41.352,-0l-22.899,-44.687l-17.341,18.156l-0,26.531l-33.571,-0l0,-108.641Z" style="fill:#fff;fill-rule:nonzero;"/></g></g><g id="text842-1"><g><path d="M249.824,275.54l0,-112.618l57.999,0c10.755,0 18.974,0.922 24.659,2.766c5.685,1.844 10.268,5.262 13.751,10.255c3.482,4.994 5.223,11.075 5.223,18.245c0,6.248 -1.331,11.638 -3.994,16.17c-2.663,4.533 -6.325,8.207 -10.985,11.024c-2.971,1.793 -7.042,3.278 -12.215,4.456c4.149,1.382 7.17,2.765 9.065,4.148c1.28,0.922 3.137,2.893 5.569,5.915c2.433,3.022 4.059,5.352 4.878,6.991l16.824,32.648l-39.332,-0l-18.59,-34.415c-2.356,-4.456 -4.455,-7.349 -6.299,-8.681c-2.51,-1.741 -5.352,-2.612 -8.527,-2.612l-3.073,0l0,45.708l-34.953,-0Zm34.953,-66.987l14.673,0c1.587,0 4.66,-0.512 9.218,-1.536c2.305,-0.461 4.187,-1.639 5.646,-3.534c1.46,-1.895 2.19,-4.071 2.19,-6.529c-0,-3.637 -1.153,-6.428 -3.457,-8.374c-2.305,-1.946 -6.632,-2.919 -12.983,-2.919l-15.287,0l0,22.892Z" style="fill:#fff;fill-rule:nonzero;"/><path d="M371.66,162.922l93.259,0l-0,24.045l-58.383,-0l-0,17.899l54.158,-0l-0,22.969l-54.158,-0l-0,22.201l60.073,-0l-0,25.504l-94.949,-0l-0,-112.618Z" style="fill:#fff;fill-rule:nonzero;"/><path d="M554.644,256.949l-39.639,0l-5.454,18.591l-35.568,-0l42.328,-112.618l37.949,0l42.327,112.618l-36.412,-0l-5.531,-18.591Zm-7.298,-24.351l-12.445,-40.484l-12.368,40.484l24.813,-0Z" style="fill:#fff;fill-rule:nonzero;"/><path d="M679.86,229.525l30.497,9.218c-2.049,8.553 -5.275,15.697 -9.679,21.433c-4.405,5.736 -9.872,10.063 -16.401,12.982c-6.53,2.92 -14.839,4.379 -24.928,4.379c-12.24,0 -22.239,-1.78 -29.998,-5.339c-7.759,-3.559 -14.455,-9.82 -20.089,-18.782c-5.633,-8.962 -8.45,-20.434 -8.45,-34.415c0,-18.642 4.955,-32.969 14.865,-42.981c9.91,-10.012 23.929,-15.018 42.059,-15.018c14.186,0 25.337,2.868 33.454,8.604c8.118,5.736 14.148,14.544 18.091,26.426l-30.727,6.837c-1.076,-3.432 -2.203,-5.941 -3.38,-7.529c-1.947,-2.663 -4.328,-4.711 -7.145,-6.145c-2.816,-1.434 -5.966,-2.151 -9.448,-2.151c-7.887,-0 -13.93,3.175 -18.13,9.525c-3.175,4.712 -4.763,12.112 -4.763,22.201c0,12.496 1.895,21.062 5.685,25.696c3.79,4.635 9.116,6.952 15.978,6.952c6.658,0 11.69,-1.869 15.095,-5.607c3.406,-3.739 5.877,-9.167 7.414,-16.286Z" style="fill:#fff;fill-rule:nonzero;"/><path d="M719.345,162.922l105.78,0l0,27.809l-35.49,0l-0,84.809l-34.8,-0l0,-84.809l-35.49,0l-0,-27.809Z" style="fill:#fff;fill-rule:nonzero;"/></g></g><path d="M65.816,112.421c0,-0 -65.816,137.909 -65.816,137.909c0,13.912 11.295,25.207 25.207,25.207l165.048,0c13.912,0 25.207,-11.295 25.207,-25.207l-65.816,-137.909l-0,-13.973l41.916,-24.201c3.912,-2.258 5.254,-7.268 2.996,-11.179l-8.184,-14.176c-2.259,-3.912 -7.268,-5.254 -11.18,-2.995l-25.548,14.75l-0,-39.69c-0,-11.566 -9.391,-20.957 -20.958,-20.957l-41.914,-0c-11.567,-0 -20.958,9.391 -20.958,20.957l0,91.464Zm73.429,18.943c0,-10.461 -63.028,-10.461 -63.028,-0l-49.485,103.688c0,10.461 8.492,18.953 18.952,18.953l124.094,-0c10.46,-0 18.952,-8.492 18.952,-18.953l-49.485,-103.688Z" style="fill:#fff;"/></g></svg>